<svg xmlns="http://www.w3.org/2000/svg" viewBox="0 0 1108 256.15"><defs><style>.cls-1{fill:#fff;}.cls-2{fill:#ff0189;}.cls-3{fill:#a6e22e;}</style></defs><g id="Camada_2" data-name="Camada 2"><g id="Camada_1-2" data-name="Camada 1"><path class="cls-1" d="M50,7.93H33.5V0H75.44V7.93H59V42H50Z"/><path class="cls-1" d="M81.86,0h9V9.08h27.71V0h9.07V42h-9.07V16.81H90.9V42h-9Z"/><path class="cls-1" d="M135.23,0h38V7.93H144.27v6.34h25.61v7.44H144.27v12.4h29.51V42H135.23Z"/><path class="cls-2" d="M1.75,232.91,94.9,78.53c4-6.63,12.69-6.63,16.69,0l93.14,154.36c3.2,5.31,1.88,12.55-2.93,16l-2.65,1.9c-14,10-32.47,5.6-41.63-9.93l-54.37-92.17a.08.08,0,0,0-.15,0L48.91,240.84c-9.12,15.53-27.62,20-41.56,10l-2.68-1.92C-.13,245.43-1.45,238.21,1.75,232.91Z"/><path class="cls-2" d="M967.62,75.79l136,82.06c5.84,3.53,5.84,11.18,0,14.71l-136,82.05c-4.68,2.82-11.06,1.65-14.1-2.58l-1.67-2.33c-8.82-12.3-4.94-28.62,8.74-36.68l81.2-47.9a.08.08,0,0,0,0-.13l-81.18-47.65c-13.68-8-17.58-24.33-8.77-36.62l1.69-2.35C956.58,74.14,963,73,967.62,75.79Z"/><path class="cls-1" d="M233.48,78.53H266V251H233.48Z"/><path class="cls-3" d="M911.13,90.37l3,.64a9.81,9.81,0,0,1,7.56,11.65L894,232.88A19.67,19.67,0,0,1,870.67,248l-3-.63a9.82,9.82,0,0,1-7.57-11.65l27.68-130.23A19.66,19.66,0,0,1,911.13,90.37Z"/><path class="cls-1" d="M306.59,155.55H284.4V131.16h22.19a68.41,68.41,0,0,1,3.74-23.46A45.42,45.42,0,0,1,338.4,79.52a66.09,66.09,0,0,1,22.91-3.73,89.06,89.06,0,0,1,17.47,1.7,62.9,62.9,0,0,1,15.16,4.89l-11.53,27.36a31.87,31.87,0,0,0-7.42-2.86,39.38,39.38,0,0,0-10.49-1.32q-11.21,0-18.08,6.32t-7.3,19.28h41v24.39h-41V251H306.59Z"/><path class="cls-1" d="M398.41,131.16h32.52v18.68A141.27,141.27,0,0,1,453.68,136a128,128,0,0,1,23.84-8.9l9.56,29.77q-18.78,1.88-33,8.41a59.37,59.37,0,0,0-23.13,18.4V251H398.41Z"/><path class="cls-1" d="M492.33,185.48c0-8.79,1.8-12.28,5.39-20.3a63.78,63.78,0,0,1,15.49-21.26A75.41,75.41,0,0,1,538,129.2q14.65-5.5,33.34-5.5a95.27,95.27,0,0,1,33.46,5.55,75,75,0,0,1,25.27,15.22c6.92,6.44,12.12,12.72,15.93,21.39,3.71,8.46,5.55,14.49,5.55,24.45,0,1.25,0,2.58-.06,4a36.94,36.94,0,0,1-.27,3.9H528.59a29.51,29.51,0,0,0,6.76,10.66,42.18,42.18,0,0,0,11.7,8.35,66.44,66.44,0,0,0,16.26,5.44,100.58,100.58,0,0,0,20.44,1.92,106.48,106.48,0,0,0,22.3-2.36,162.5,162.5,0,0,0,21.21-6l11,24.83a133,133,0,0,1-12.91,5.22A111,111,0,0,1,611.71,250a139.18,139.18,0,0,1-14.83,2.25q-7.75.76-16.32.77-21.87,0-38.34-5.27t-27.58-14.4A59.35,59.35,0,0,1,497.94,212,63.06,63.06,0,0,1,492.33,185.48ZM617,177.76a32.4,32.4,0,0,0-5.44-10,35.81,35.81,0,0,0-9.17-8.14,47.08,47.08,0,0,0-12.75-5.43,60.32,60.32,0,0,0-15.93-2,63.31,63.31,0,0,0-16.81,2.09,51.19,51.19,0,0,0-13.3,5.6,37.6,37.6,0,0,0-9.5,8.13,31.22,31.22,0,0,0-5.55,9.78Z"/><path class="cls-1" d="M669.74,187.81a65.37,65.37,0,0,1,5.82-28,63,63,0,0,1,16.1-21.31,72.63,72.63,0,0,1,24.39-13.63,95.11,95.11,0,0,1,30.61-4.78,110.45,110.45,0,0,1,13.89.88,120.5,120.5,0,0,1,13.19,2.42,96.62,96.62,0,0,1,11.87,3.68,67.81,67.81,0,0,1,9.83,4.67V79.64H828V252.09H795.44V239.9a65.63,65.63,0,0,1-10.11,5.6,95,95,0,0,1-12.53,4.61,109.07,109.07,0,0,1-13.9,3.13,89.59,89.59,0,0,1-14.22,1.16,90.74,90.74,0,0,1-30.27-4.84,69.92,69.92,0,0,1-23.68-13.62,62.11,62.11,0,0,1-15.44-21A64.91,64.91,0,0,1,669.74,187.81Zm34.17,0A35.44,35.44,0,0,0,707,202.54a36.08,36.08,0,0,0,9,12.14,43.46,43.46,0,0,0,14.18,8.24,54.23,54.23,0,0,0,18.62,3A70.14,70.14,0,0,0,762,224.68a77.28,77.28,0,0,0,12.69-3.57,66.18,66.18,0,0,0,11.42-5.61,48,48,0,0,0,9.29-7.36V163.2A59.27,59.27,0,0,0,785,156.5a72.89,72.89,0,0,0-11.21-4.5,74,74,0,0,0-11.53-2.59,80.79,80.79,0,0,0-11.32-.82,61,61,0,0,0-19.94,3,43.56,43.56,0,0,0-14.73,8.3,35.74,35.74,0,0,0-9.17,12.41A37.67,37.67,0,0,0,703.91,187.81Z"/></g></g></svg>